# 3ds Max Wavefront OBJ Exporter v0.97b - (c)2007 guruware
# File Created: 30.04.2019 20:37:42

mtllib oldtv.mtl

#
# object default
#

v  14.5093 40.7375 -78.5110
v  -14.5093 40.7375 -78.5110
v  -15.1976 40.7375 -80.3319
v  15.1976 40.7375 -80.3319
v  -15.1976 63.1375 -80.3319
v  -14.5093 63.1375 -78.5110
v  14.5093 63.1375 -78.5110
v  15.1976 63.1375 -80.3319
v  -12.6019 63.1375 -99.0444
v  -12.6019 63.1375 -100.9110
v  -12.6019 40.7375 -100.9110
v  -12.6019 40.7375 -99.0444
v  12.6019 40.7375 -100.9110
v  12.6019 63.1375 -100.9110
v  -15.1976 63.1375 -82.2444
v  -15.5179 63.1375 -85.9777
v  -15.5179 40.7375 -85.9777
v  -15.1976 40.7375 -82.2444
v  -15.5179 63.1375 -93.4444
v  -15.5179 40.7375 -93.4444
v  14.5093 63.1375 -97.1777
v  15.5179 63.1375 -93.4444
v  15.5179 40.7375 -93.4444
v  14.5093 40.7375 -97.1777
v  15.5179 63.1375 -85.9777
v  15.5179 40.7375 -85.9777
v  -14.5093 63.1375 -97.1777
v  -14.5093 40.7375 -97.1777
v  15.1976 63.1375 -82.2444
v  15.1976 40.7375 -82.2444
v  12.6019 40.7375 -99.0444
v  12.6019 63.1375 -99.0444
# 32 vertices

vn 0.0000 -1.0000 -0.0000
vn 0.0000 1.0000 -0.0000
vn 0.9354 0.0000 0.3536
vn 0.0000 0.0000 1.0000
vn -1.0000 0.0000 -0.0000
vn 0.0000 0.0000 -1.0000
vn -0.9963 0.0000 0.0855
vn 0.9654 0.0000 -0.2608
vn 1.0000 0.0000 -0.0000
vn 0.9963 0.0000 0.0855
vn 0.6994 0.0000 -0.7147
vn -0.9654 0.0000 -0.2608
vn -0.9354 0.0000 0.3536
vn -0.6994 0.0000 -0.7147
# 14 vertex normals

vt 0.3142 0.3529 0.0000
vt 0.2486 0.3529 0.0000
vt 0.2486 0.3474 0.0000
vt 0.3142 0.3474 0.0000
vt 0.2852 0.3483 0.0000
vt 0.2760 0.3483 0.0000
vt 0.2760 0.2376 0.0000
vt 0.2852 0.2376 0.0000
vt 0.2964 0.3443 0.0000
vt 0.2875 0.3443 0.0000
vt 0.2875 0.2375 0.0000
vt 0.2964 0.2375 0.0000
vt 0.5177 0.7382 0.0000
vt 0.1076 0.7382 0.0000
vt 0.1076 0.3040 0.0000
vt 0.5177 0.3040 0.0000
vt 0.2623 0.3496 0.0000
vt 0.2525 0.3496 0.0000
vt 0.2525 0.2322 0.0000
vt 0.2623 0.2322 0.0000
vt 0.3625 0.3280 0.0000
vt 0.2923 0.3280 0.0000
vt 0.2923 0.2579 0.0000
vt 0.3625 0.2579 0.0000
vt 0.3503 0.3496 0.0000
vt 0.3308 0.3496 0.0000
vt 0.3308 0.2322 0.0000
vt 0.3503 0.2322 0.0000
vt 0.2916 0.3496 0.0000
vt 0.2916 0.2322 0.0000
vt 0.3766 0.3443 0.0000
vt 0.3587 0.3443 0.0000
vt 0.3587 0.2375 0.0000
vt 0.3766 0.2375 0.0000
vt 0.3231 0.3443 0.0000
vt 0.3231 0.2375 0.0000
vt 0.3682 0.3483 0.0000
vt 0.3498 0.3483 0.0000
vt 0.3498 0.2376 0.0000
vt 0.3682 0.2376 0.0000
vt 0.3129 0.3483 0.0000
vt 0.3129 0.2376 0.0000
vt 0.3142 0.3091 0.0000
vt 0.2486 0.3091 0.0000
vt 0.2486 0.2982 0.0000
vt 0.3142 0.2982 0.0000
vt 0.3142 0.3310 0.0000
vt 0.2486 0.3310 0.0000
vt 0.3601 0.3496 0.0000
vt 0.3601 0.2322 0.0000
vt 0.3053 0.3443 0.0000
vt 0.3053 0.2375 0.0000
vt 0.2945 0.3483 0.0000
vt 0.2945 0.2376 0.0000
vt 0.3142 0.3420 0.0000
vt 0.2486 0.3420 0.0000
vt 0.2486 0.2927 0.0000
vt 0.3142 0.2927 0.0000
vt 0.3774 0.3483 0.0000
vt 0.3774 0.2376 0.0000
vt 0.3855 0.3443 0.0000
vt 0.3855 0.2375 0.0000
vt 0.2720 0.3496 0.0000
vt 0.2720 0.2322 0.0000
vt 0.3699 0.3496 0.0000
vt 0.3699 0.2322 0.0000
vt 0.3944 0.3443 0.0000
vt 0.3944 0.2375 0.0000
vt 0.3867 0.3483 0.0000
vt 0.3867 0.2376 0.0000
vt 0.2486 0.2873 0.0000
vt 0.3142 0.2873 0.0000
# 72 texture coords

g default
usemtl _oldtvMaterial__61
s off
f 1/1/1 2/2/1 3/3/1 
f 3/3/1 4/4/1 1/1/1 
f 5/5/2 6/6/2 7/7/2 
f 7/7/2 8/8/2 5/5/2 
f 8/9/3 7/10/3 1/11/3 
f 1/11/3 4/12/3 8/9/3 
f 7/13/4 6/14/4 2/15/4 
f 2/15/4 1/16/4 7/13/4 
f 9/17/5 10/18/5 11/19/5 
f 11/19/5 12/20/5 9/17/5 
f 13/21/6 11/22/6 10/23/6 
f 10/23/6 14/24/6 13/21/6 
f 15/25/7 16/26/7 17/27/7 
f 17/27/7 18/28/7 15/25/7 
f 16/26/5 19/29/5 20/30/5 
f 20/30/5 17/27/5 16/26/5 
f 21/31/8 22/32/8 23/33/8 
f 23/33/8 24/34/8 21/31/8 
f 22/32/9 25/35/9 26/36/9 
f 26/36/9 23/33/9 22/32/9 
f 27/37/2 19/38/2 22/39/2 
f 22/39/2 21/40/2 27/37/2 
f 19/38/2 16/41/2 25/42/2 
f 25/42/2 22/39/2 19/38/2 
f 23/43/1 20/44/1 28/45/1 
f 28/45/1 24/46/1 23/43/1 
f 26/47/1 17/48/1 20/44/1 
f 20/44/1 23/43/1 26/47/1 
f 5/49/5 15/25/5 18/28/5 
f 18/28/5 3/50/5 5/49/5 
f 25/35/10 29/51/10 30/52/10 
f 30/52/10 26/36/10 25/35/10 
f 16/41/2 15/53/2 29/54/2 
f 29/54/2 25/42/2 16/41/2 
f 30/55/1 18/56/1 17/48/1 
f 17/48/1 26/47/1 30/55/1 
f 24/46/1 28/45/1 12/57/1 
f 12/57/1 31/58/1 24/46/1 
f 9/59/2 27/37/2 21/40/2 
f 21/40/2 32/60/2 9/59/2 
f 32/61/11 21/31/11 24/34/11 
f 24/34/11 31/62/11 32/61/11 
f 19/29/12 27/63/12 28/64/12 
f 28/64/12 20/30/12 19/29/12 
f 6/65/13 5/49/13 3/50/13 
f 3/50/13 2/66/13 6/65/13 
f 29/51/9 8/9/9 4/12/9 
f 4/12/9 30/52/9 29/51/9 
f 15/53/2 5/5/2 8/8/2 
f 8/8/2 29/54/2 15/53/2 
f 4/4/1 3/3/1 18/56/1 
f 18/56/1 30/55/1 4/4/1 
f 14/67/9 32/61/9 31/62/9 
f 31/62/9 13/68/9 14/67/9 
f 10/69/2 9/59/2 32/60/2 
f 32/60/2 14/70/2 10/69/2 
f 31/58/1 12/57/1 11/71/1 
f 11/71/1 13/72/1 31/58/1 
f 27/63/14 9/17/14 12/20/14 
f 12/20/14 28/64/14 27/63/14 
# 60 faces

