# 3ds Max Wavefront OBJ Exporter v0.97b - (c)2007 guruware
# File Created: 30.04.2019 02:32:48

mtllib closet.mtl

#
# object closet
#

v  128.5789 168.1904 -32.9063
v  127.6750 168.1904 -33.8101
v  127.2842 168.1904 -33.8101
v  126.3804 168.1904 -32.9063
v  126.3804 168.1904 -32.5154
v  127.2842 168.1904 -31.6116
v  127.6750 168.1904 -31.6116
v  128.5789 168.1904 -32.5154
v  127.6750 155.8769 -33.8101
v  128.5789 155.8769 -32.9063
v  128.5789 155.8769 -32.5154
v  127.6750 155.8769 -31.6116
v  127.2842 155.8769 -31.6116
v  126.3804 155.8769 -32.5154
v  126.3804 155.8769 -32.9063
v  127.2842 155.8769 -33.8101
v  128.5789 24.3256 -32.9063
v  127.6750 24.3256 -33.8101
v  127.2842 24.3256 -33.8101
v  126.3804 24.3256 -32.9063
v  126.3804 24.3256 -32.5154
v  127.2842 24.3256 -31.6116
v  127.6750 24.3256 -31.6116
v  128.5789 24.3256 -32.5154
v  127.6750 12.0121 -33.8101
v  128.5789 12.0121 -32.9063
v  128.5789 12.0121 -32.5154
v  127.6750 12.0121 -31.6116
v  127.2842 12.0121 -31.6116
v  126.3804 12.0121 -32.5154
v  126.3804 12.0121 -32.9063
v  127.2842 12.0121 -33.8101
v  -126.4620 168.1904 -32.5154
v  -126.4620 168.1904 -32.9063
v  -127.3658 168.1904 -33.8101
v  -127.7566 168.1904 -33.8101
v  -128.6605 168.1904 -32.9063
v  -128.6605 168.1904 -32.5154
v  -127.7566 168.1904 -31.6116
v  -127.3658 168.1904 -31.6116
v  -127.3658 155.8769 -31.6116
v  -127.7566 155.8769 -31.6116
v  -128.6605 155.8769 -32.5154
v  -128.6605 155.8769 -32.9063
v  -127.7566 155.8769 -33.8101
v  -127.3658 155.8769 -33.8101
v  -126.4620 155.8769 -32.9063
v  -126.4620 155.8769 -32.5154
v  -126.4620 24.3256 -32.5154
v  -126.4620 24.3256 -32.9063
v  -127.3658 24.3256 -33.8101
v  -127.7566 24.3256 -33.8101
v  -128.6605 24.3256 -32.9063
v  -128.6605 24.3256 -32.5154
v  -127.7566 24.3256 -31.6116
v  -127.3658 24.3256 -31.6116
v  -127.3658 12.0121 -31.6116
v  -127.7566 12.0121 -31.6116
v  -128.6605 12.0121 -32.5154
v  -128.6605 12.0121 -32.9063
v  -127.7566 12.0121 -33.8101
v  -127.3658 12.0121 -33.8101
v  -126.4620 12.0121 -32.9063
v  -126.4620 12.0121 -32.5154
v  42.3471 5.7448 -31.8392
v  127.0414 5.7448 -31.8392
v  133.1998 -0.4136 -31.8392
v  -42.3471 5.7448 -31.8392
v  -127.0414 5.7448 -31.8392
v  -133.1998 -0.4136 -31.8392
v  133.1998 180.7171 -31.8392
v  127.0414 174.5587 -31.8392
v  42.3471 174.5587 -31.8392
v  -42.3471 174.5587 -31.8392
v  -127.0414 174.5587 -31.8392
v  -133.1998 180.7171 -31.8392
v  -37.8583 63.5124 -31.8392
v  -37.8583 10.2336 -31.8392
v  -37.8583 66.1230 -31.8392
v  -37.8583 114.1805 -31.8392
v  -37.8583 116.7911 -31.8392
v  -37.8583 170.0699 -31.8392
v  37.8583 10.2336 -31.8392
v  37.8583 63.5124 -31.8392
v  37.8583 66.1230 -31.8392
v  37.8583 114.1805 -31.8392
v  37.8583 116.7911 -31.8392
v  37.8583 170.0699 -31.8392
v  128.0344 156.6047 -30.7440
v  128.0344 167.4626 -30.7440
v  126.9248 167.4626 -30.7440
v  126.9248 156.6047 -30.7440
v  125.5128 156.6047 -32.1561
v  125.5128 167.4626 -32.1561
v  125.5128 167.4626 -33.2656
v  125.5128 156.6047 -33.2656
v  129.4464 167.4626 -32.1561
v  129.4464 156.6047 -32.1561
v  129.4464 156.6047 -33.2656
v  129.4464 167.4626 -33.2656
v  126.9248 156.6047 -34.6776
v  126.9248 167.4626 -34.6776
v  128.0344 167.4626 -34.6776
v  128.0344 156.6047 -34.6776
v  128.0344 12.7399 -30.7440
v  128.0344 23.5978 -30.7440
v  126.9248 23.5978 -30.7440
v  126.9248 12.7399 -30.7440
v  125.5128 12.7399 -32.1561
v  125.5128 23.5978 -32.1561
v  125.5128 23.5978 -33.2656
v  125.5128 12.7399 -33.2656
v  129.4464 23.5978 -32.1561
v  129.4464 12.7399 -32.1561
v  129.4464 12.7399 -33.2656
v  129.4464 23.5978 -33.2656
v  126.9248 12.7399 -34.6776
v  126.9248 23.5978 -34.6776
v  128.0344 23.5978 -34.6776
v  128.0344 12.7399 -34.6776
v  -125.5944 156.6047 -32.1561
v  -125.5944 167.4626 -32.1561
v  -127.0065 167.4626 -30.7440
v  -127.0065 156.6047 -30.7440
v  -125.5944 156.6047 -33.2656
v  -125.5944 167.4626 -33.2656
v  -128.1160 167.4626 -30.7440
v  -128.1160 156.6047 -30.7440
v  -129.5280 167.4626 -32.1561
v  -129.5280 156.6047 -32.1561
v  -129.5280 167.4626 -33.2656
v  -129.5280 156.6047 -33.2656
v  -127.0065 156.6047 -34.6776
v  -127.0065 167.4626 -34.6776
v  -128.1160 156.6047 -34.6776
v  -128.1160 167.4626 -34.6776
v  -125.5944 12.7399 -32.1561
v  -125.5944 23.5978 -32.1561
v  -127.0065 23.5978 -30.7440
v  -127.0065 12.7399 -30.7440
v  -125.5944 12.7399 -33.2656
v  -125.5944 23.5978 -33.2656
v  -128.1160 23.5978 -30.7440
v  -128.1160 12.7399 -30.7440
v  -129.5280 23.5978 -32.1561
v  -129.5280 12.7399 -32.1561
v  -129.5280 23.5978 -33.2656
v  -129.5280 12.7399 -33.2656
v  -127.0065 12.7399 -34.6776
v  -127.0065 23.5978 -34.6776
v  -128.1160 12.7399 -34.6776
v  -128.1160 23.5978 -34.6776
v  133.1998 -0.4136 31.8392
v  133.1998 180.7171 31.8392
v  -133.1998 180.7171 31.8392
v  -133.1998 -0.4136 31.8392
v  -134.7982 181.4101 32.2213
v  -134.7982 181.4101 -32.2213
v  134.7982 181.4101 32.2213
v  134.7982 181.4101 -32.2213
v  134.7982 193.0786 32.2213
v  -134.7982 193.0786 32.2213
v  134.7982 193.0786 -32.2213
v  -134.7982 193.0786 -32.2213
v  -127.0414 5.7448 -32.6288
v  -42.3471 5.7448 -32.6288
v  -127.0414 174.5587 -32.6288
v  127.0414 174.5587 -32.6288
v  42.3471 174.5587 -32.6288
v  127.0414 5.7448 -32.6288
v  42.3471 5.7448 -32.6288
v  -42.3471 174.5587 -32.6288
v  -43.6692 173.2366 -33.9509
v  -125.7193 173.2366 -33.9509
v  -43.6692 7.0669 -33.9509
v  -125.7193 7.0669 -33.9509
v  43.6692 7.0669 -33.9509
v  125.7193 7.0669 -33.9509
v  43.6692 173.2366 -33.9509
v  125.7193 173.2366 -33.9509
v  37.8583 170.0699 17.8012
v  -37.8583 170.0699 17.8012
v  37.8583 10.2336 17.8012
v  37.8583 63.5124 17.8012
v  -37.8583 10.2336 17.8012
v  -37.8583 116.7911 17.8012
v  -37.8583 63.5124 17.8012
v  37.8583 116.7911 17.8012
v  37.8583 66.1230 17.8012
v  37.8583 114.1805 17.8012
v  -37.8583 114.1805 17.8012
v  -37.8583 66.1230 17.8012
# 192 vertices

vn 0.3622 0.9200 -0.1500
vn 0.1500 0.9200 -0.3622
vn -0.1500 0.9200 -0.3622
vn -0.3622 0.9200 -0.1500
vn -0.3622 0.9200 0.1500
vn -0.1500 0.9200 0.3622
vn 0.1500 0.9200 0.3622
vn 0.3622 0.9200 0.1500
vn 0.1500 -0.9200 -0.3622
vn 0.3622 -0.9199 -0.1500
vn 0.3622 -0.9199 0.1500
vn 0.1500 -0.9199 0.3622
vn -0.1500 -0.9199 0.3622
vn -0.3622 -0.9199 0.1500
vn -0.3622 -0.9199 -0.1500
vn -0.1500 -0.9200 -0.3622
vn 0.3622 -0.9200 -0.1500
vn 0.3622 -0.9200 0.1500
vn 0.1500 -0.9200 0.3622
vn -0.1500 -0.9200 0.3622
vn -0.3622 -0.9200 0.1500
vn -0.3622 -0.9200 -0.1500
vn 0.1500 -0.9199 -0.3622
vn -0.3015 -0.3015 -0.9045
vn 0.3015 -0.3015 -0.9045
vn 0.5774 -0.5774 -0.5774
vn -0.5774 -0.5774 -0.5774
vn 0.4224 -0.5432 -0.7256
vn 0.3015 0.3015 -0.9045
vn -0.3015 0.3015 -0.9045
vn -0.4224 -0.5432 -0.7256
vn 0.3503 -0.4025 0.8457
vn 0.3503 0.4025 0.8457
vn -0.3503 0.4025 0.8457
vn -0.3503 -0.4025 0.8457
vn -0.8457 -0.4025 0.3503
vn -0.8457 0.4025 0.3503
vn -0.8457 0.4025 -0.3503
vn -0.8457 -0.4025 -0.3503
vn 0.8457 0.4025 0.3503
vn 0.8457 -0.4025 0.3503
vn 0.8457 -0.4025 -0.3503
vn 0.8457 0.4025 -0.3503
vn -0.3503 -0.4025 -0.8457
vn -0.3503 0.4025 -0.8457
vn 0.3503 0.4025 -0.8457
vn 0.3503 -0.4025 -0.8457
vn 0.5774 -0.5774 0.5774
vn 0.4224 -0.5432 0.7256
vn -0.4224 -0.5432 0.7256
vn -0.5774 -0.5774 0.5774
vn -0.6513 -0.4523 0.6092
vn -0.6513 -0.4523 -0.6092
vn 0.6513 -0.4523 0.6092
vn 0.6513 -0.4523 -0.6092
vn 0.5774 0.5774 0.5774
vn -0.5774 0.5774 0.5774
vn 0.5774 0.5774 -0.5774
vn -0.5774 0.5774 -0.5774
vn -0.6507 -0.6507 -0.3914
vn 0.6507 -0.6507 -0.3914
vn -0.6507 0.6507 -0.3914
vn 0.6507 0.6507 -0.3914
vn 0.3002 0.3002 -0.9054
vn -0.3002 0.3002 -0.9054
vn 0.3002 -0.3002 -0.9054
vn -0.3002 -0.3002 -0.9054
# 67 vertex normals

vt 0.9800 0.4130 0.0000
vt 0.9750 0.4178 0.0000
vt 0.9729 0.4178 0.0000
vt 0.9681 0.4128 0.0000
vt 0.9682 0.4107 0.0000
vt 0.9731 0.4059 0.0000
vt 0.9752 0.4059 0.0000
vt 0.9800 0.4109 0.0000
vt 0.9707 0.4572 0.0000
vt 0.9658 0.4523 0.0000
vt 0.9658 0.4502 0.0000
vt 0.9707 0.4453 0.0000
vt 0.9727 0.4453 0.0000
vt 0.9776 0.4502 0.0000
vt 0.9776 0.4523 0.0000
vt 0.9728 0.4572 0.0000
vt 0.2493 0.0222 0.0000
vt 0.0282 0.0222 0.0000
vt 0.0121 0.0061 0.0000
vt 0.4704 0.0222 0.0000
vt 0.6915 0.0222 0.0000
vt 0.7076 0.0061 0.0000
vt 0.0121 0.4790 0.0000
vt 0.0282 0.4629 0.0000
vt 0.2493 0.4629 0.0000
vt 0.4704 0.4629 0.0000
vt 0.6915 0.4629 0.0000
vt 0.7076 0.4790 0.0000
vt 0.4587 0.1730 0.0000
vt 0.4587 0.0339 0.0000
vt 0.4587 0.1798 0.0000
vt 0.4587 0.3053 0.0000
vt 0.4587 0.3121 0.0000
vt 0.4587 0.4512 0.0000
vt 0.2610 0.0339 0.0000
vt 0.2610 0.1730 0.0000
vt 0.2610 0.1798 0.0000
vt 0.2610 0.3053 0.0000
vt 0.2610 0.3121 0.0000
vt 0.2610 0.4512 0.0000
vt 0.9574 0.1388 0.0000
vt 0.9574 0.0771 0.0000
vt 0.9637 0.0771 0.0000
vt 0.9637 0.1388 0.0000
vt 0.9680 0.4390 0.0000
vt 0.9753 0.4388 0.0000
vt 0.9839 0.4476 0.0000
vt 0.9750 0.0771 0.0000
vt 0.9750 0.1388 0.0000
vt 0.9619 0.4080 0.0000
vt 0.9706 0.3995 0.0000
vt 0.9813 0.0771 0.0000
vt 0.9813 0.1388 0.0000
vt 0.9618 0.4152 0.0000
vt 0.9779 0.3995 0.0000
vt 0.9864 0.4084 0.0000
vt 0.9460 0.1388 0.0000
vt 0.9460 0.0771 0.0000
vt 0.9595 0.4477 0.0000
vt 0.9397 0.1388 0.0000
vt 0.9397 0.0771 0.0000
vt 0.9595 0.4549 0.0000
vt 0.9839 0.4548 0.0000
vt 0.9754 0.4635 0.0000
vt 0.9927 0.0771 0.0000
vt 0.9927 0.1388 0.0000
vt 0.9702 0.4242 0.0000
vt 0.9283 0.0771 0.0000
vt 0.9283 0.1388 0.0000
vt 0.9220 0.1388 0.0000
vt 0.9220 0.0771 0.0000
vt 0.9775 0.4242 0.0000
vt 0.9862 0.4156 0.0000
vt 0.9681 0.4637 0.0000
vt 0.7049 0.5185 0.0000
vt 0.7049 0.9914 0.0000
vt 0.0094 0.9914 0.0000
vt 0.0094 0.5185 0.0000
vt 0.7508 0.9897 0.0000
vt 0.7508 0.4996 0.0000
vt 0.8680 0.4996 0.0000
vt 0.8680 0.9897 0.0000
vt 0.1917 0.9909 0.0000
vt 0.1917 0.5193 0.0000
vt 0.3575 0.5193 0.0000
vt 0.3575 0.9909 0.0000
vt 0.7426 0.8362 0.0000
vt 0.7426 0.6852 0.0000
vt 0.7447 0.6861 0.0000
vt 0.7447 0.8353 0.0000
vt 0.7153 0.6630 0.0000
vt 0.7153 0.0130 0.0000
vt 0.7172 0.0168 0.0000
vt 0.7172 0.6591 0.0000
vt 0.1762 0.5206 0.0000
vt 0.1762 0.9922 0.0000
vt 0.0104 0.9922 0.0000
vt 0.0104 0.5206 0.0000
vt 0.7117 0.4808 0.0000
vt 0.0079 0.4808 0.0000
vt 0.7406 0.9966 0.0000
vt 0.7406 0.8457 0.0000
vt 0.7427 0.8466 0.0000
vt 0.7427 0.9958 0.0000
vt 0.7479 0.0168 0.0000
vt 0.7479 0.6668 0.0000
vt 0.7197 0.6668 0.0000
vt 0.7197 0.0168 0.0000
vt 0.8736 0.9925 0.0000
vt 0.8736 0.4965 0.0000
vt 0.9922 0.4965 0.0000
vt 0.9922 0.9925 0.0000
vt 0.7135 0.9966 0.0000
vt 0.7135 0.8457 0.0000
vt 0.7117 0.5113 0.0000
vt 0.0079 0.5113 0.0000
vt 0.7155 0.8362 0.0000
vt 0.7155 0.6852 0.0000
vt 0.2443 0.0319 0.0000
vt 0.0313 0.0319 0.0000
vt 0.0300 0.0312 0.0000
vt 0.2456 0.0312 0.0000
vt 0.2468 0.4555 0.0000
vt 0.2481 0.4561 0.0000
vt 0.4764 0.4527 0.0000
vt 0.6893 0.4527 0.0000
vt 0.6906 0.4534 0.0000
vt 0.4750 0.4534 0.0000
vt 0.4738 0.0291 0.0000
vt 0.4725 0.0284 0.0000
vt 0.6868 0.0291 0.0000
vt 0.6881 0.0284 0.0000
vt 0.0339 0.4555 0.0000
vt 0.0325 0.4561 0.0000
vt 0.0380 0.4517 0.0000
vt 0.2426 0.4517 0.0000
vt 0.0356 0.0356 0.0000
vt 0.2401 0.0356 0.0000
vt 0.6826 0.0329 0.0000
vt 0.4781 0.0329 0.0000
vt 0.6851 0.4490 0.0000
vt 0.4806 0.4490 0.0000
vt 0.7568 0.4875 0.0000
vt 0.9366 0.4875 0.0000
vt 0.9366 0.3695 0.0000
vt 0.7568 0.3695 0.0000
vt 0.9135 0.0721 0.0000
vt 0.9135 0.2366 0.0000
vt 0.7601 0.2366 0.0000
vt 0.7601 0.0721 0.0000
vt 0.7567 0.4885 0.0000
vt 0.9366 0.4885 0.0000
vt 0.9366 0.3705 0.0000
vt 0.7567 0.3705 0.0000
vt 0.9139 0.2354 0.0000
vt 0.9139 0.0708 0.0000
vt 0.7606 0.0708 0.0000
vt 0.7606 0.2354 0.0000
vt 0.9356 0.3648 0.0000
vt 0.9356 0.3710 0.0000
vt 0.7557 0.3710 0.0000
vt 0.7557 0.3648 0.0000
vt 0.7557 0.2469 0.0000
vt 0.9356 0.2469 0.0000
vt 0.9123 0.0726 0.0000
vt 0.9123 0.2372 0.0000
vt 0.7589 0.2372 0.0000
vt 0.7589 0.0726 0.0000
vt 0.7558 0.3704 0.0000
vt 0.7558 0.3642 0.0000
vt 0.9357 0.3642 0.0000
vt 0.9357 0.3704 0.0000
vt 0.9357 0.4883 0.0000
vt 0.7558 0.4883 0.0000
vt 0.9136 0.2348 0.0000
vt 0.9136 0.0703 0.0000
vt 0.7603 0.0703 0.0000
vt 0.7603 0.2348 0.0000
vt 0.9138 0.0709 0.0000
vt 0.9138 0.2321 0.0000
vt 0.7604 0.2321 0.0000
vt 0.7604 0.0709 0.0000
vt 0.7558 0.2463 0.0000
vt 0.9357 0.2463 0.0000
vt 0.9127 0.2333 0.0000
vt 0.9127 0.0721 0.0000
vt 0.7594 0.0721 0.0000
vt 0.7594 0.2333 0.0000
vt 0.9356 0.4890 0.0000
vt 0.7557 0.4890 0.0000
vt 0.4357 0.3391 0.0000
vt 0.4357 0.4425 0.0000
vt 0.2887 0.4425 0.0000
vt 0.2887 0.3391 0.0000
vt 0.2903 0.2356 0.0000
vt 0.2903 0.1322 0.0000
vt 0.4373 0.1322 0.0000
vt 0.4373 0.2356 0.0000
vt 0.4362 0.2411 0.0000
vt 0.4362 0.3344 0.0000
vt 0.2892 0.3344 0.0000
vt 0.2892 0.2411 0.0000
# 202 texture coords

g closet
usemtl Material__25
s 1
f 1/1/1 2/2/2 3/3/3 
f 3/3/3 4/4/4 5/5/5 
f 5/5/5 6/6/6 7/7/7 
f 3/3/3 5/5/5 7/7/7 
f 1/1/1 3/3/3 7/7/7 
f 8/8/8 1/1/1 7/7/7 
f 9/9/9 10/10/10 11/11/11 
f 11/11/11 12/12/12 13/13/13 
f 13/13/13 14/14/14 15/15/15 
f 11/11/11 13/13/13 15/15/15 
f 9/9/9 11/11/11 15/15/15 
f 16/16/16 9/9/9 15/15/15 
f 17/1/1 18/2/2 19/3/3 
f 19/3/3 20/4/4 21/5/5 
f 21/5/5 22/6/6 23/7/7 
f 19/3/3 21/5/5 23/7/7 
f 17/1/1 19/3/3 23/7/7 
f 24/8/8 17/1/1 23/7/7 
f 25/9/9 26/10/17 27/11/18 
f 27/11/18 28/12/19 29/13/20 
f 29/13/20 30/14/21 31/15/22 
f 27/11/18 29/13/20 31/15/22 
f 25/9/9 27/11/18 31/15/22 
f 32/16/16 25/9/9 31/15/22 
f 33/5/8 34/4/1 35/3/2 
f 35/3/2 36/2/3 37/1/4 
f 37/1/4 38/8/5 39/7/6 
f 35/3/2 37/1/4 39/7/6 
f 33/5/8 35/3/2 39/7/6 
f 40/6/7 33/5/8 39/7/6 
f 41/13/12 42/12/20 43/11/14 
f 43/11/14 44/10/15 45/9/16 
f 45/9/16 46/16/23 47/15/17 
f 43/11/14 45/9/16 47/15/17 
f 41/13/12 43/11/14 47/15/17 
f 48/14/18 41/13/12 47/15/17 
f 49/5/8 50/4/1 51/3/2 
f 51/3/2 52/2/3 53/1/4 
f 53/1/4 54/8/5 55/7/6 
f 51/3/2 53/1/4 55/7/6 
f 49/5/8 51/3/2 55/7/6 
f 56/6/7 49/5/8 55/7/6 
f 57/13/19 58/12/20 59/11/21 
f 59/11/21 60/10/22 61/9/16 
f 61/9/16 62/16/9 63/15/17 
f 59/11/21 61/9/16 63/15/17 
f 57/13/19 59/11/21 63/15/17 
f 64/14/18 57/13/19 63/15/17 
f 65/17/24 66/18/25 67/19/26 
f 68/20/25 65/17/24 67/19/26 
f 69/21/24 68/20/25 67/19/26 
f 69/21/24 67/19/26 70/22/27 
f 71/23/28 72/24/29 73/25/30 
f 71/23/28 73/25/30 74/26/29 
f 71/23/28 74/26/29 75/27/30 
f 71/23/28 75/27/30 76/28/31 
f 77/29/25 78/30/29 68/20/25 
f 79/31/29 77/29/25 68/20/25 
f 80/32/25 79/31/29 68/20/25 
f 81/33/29 80/32/25 68/20/25 
f 82/34/25 81/33/29 68/20/25 
f 82/34/25 68/20/25 74/26/29 
f 65/17/24 83/35/30 84/36/24 
f 65/17/24 84/36/24 85/37/30 
f 65/17/24 85/37/30 86/38/24 
f 65/17/24 86/38/24 87/39/30 
f 65/17/24 87/39/30 88/40/24 
f 65/17/24 88/40/24 73/25/30 
f 89/41/32 90/42/33 91/43/34 
f 91/43/34 92/44/35 89/41/32 
f 13/13/13 12/12/12 89/45/32 
f 89/45/32 92/46/35 13/13/13 
f 14/14/14 13/13/13 92/46/35 
f 92/46/35 93/47/36 14/14/14 
f 94/48/37 93/49/36 92/44/35 
f 92/44/35 91/43/34 94/48/37 
f 6/6/6 5/5/5 94/50/37 
f 94/50/37 91/51/34 6/6/6 
f 95/52/38 96/53/39 93/49/36 
f 93/49/36 94/48/37 95/52/38 
f 5/5/5 4/4/4 95/54/38 
f 95/54/38 94/50/37 5/5/5 
f 7/7/7 6/6/6 91/51/34 
f 91/51/34 90/55/33 7/7/7 
f 8/8/8 7/7/7 90/55/33 
f 90/55/33 97/56/40 8/8/8 
f 98/57/41 97/58/40 90/42/33 
f 90/42/33 89/41/32 98/57/41 
f 12/12/12 11/11/11 98/59/41 
f 98/59/41 89/45/32 12/12/12 
f 99/60/42 100/61/43 97/58/40 
f 97/58/40 98/57/41 99/60/42 
f 11/11/11 10/10/10 99/62/42 
f 99/62/42 98/59/41 11/11/11 
f 15/15/15 14/14/14 93/47/36 
f 93/47/36 96/63/39 15/15/15 
f 16/16/16 15/15/15 96/63/39 
f 96/63/39 101/64/44 16/16/16 
f 102/65/45 101/66/44 96/53/39 
f 96/53/39 95/52/38 102/65/45 
f 4/4/4 3/3/3 102/67/45 
f 102/67/45 95/54/38 4/4/4 
f 103/68/46 104/69/47 101/70/44 
f 101/70/44 102/71/45 103/68/46 
f 3/3/3 2/2/2 103/72/46 
f 103/72/46 102/67/45 3/3/3 
f 2/2/2 1/1/1 100/73/43 
f 100/73/43 103/72/46 2/2/2 
f 1/1/1 8/8/8 97/56/40 
f 97/56/40 100/73/43 1/1/1 
f 9/9/9 16/16/16 101/64/44 
f 101/64/44 104/74/47 9/9/9 
f 104/69/47 103/68/46 100/61/43 
f 100/61/43 99/60/42 104/69/47 
f 10/10/10 9/9/9 104/74/47 
f 104/74/47 99/62/42 10/10/10 
f 105/41/32 106/42/33 107/43/34 
f 107/43/34 108/44/35 105/41/32 
f 29/13/20 28/12/19 105/45/32 
f 105/45/32 108/46/35 29/13/20 
f 30/14/21 29/13/20 108/46/35 
f 108/46/35 109/47/36 30/14/21 
f 110/48/37 109/49/36 108/44/35 
f 108/44/35 107/43/34 110/48/37 
f 22/6/6 21/5/5 110/50/37 
f 110/50/37 107/51/34 22/6/6 
f 111/52/38 112/53/39 109/49/36 
f 109/49/36 110/48/37 111/52/38 
f 21/5/5 20/4/4 111/54/38 
f 111/54/38 110/50/37 21/5/5 
f 23/7/7 22/6/6 107/51/34 
f 107/51/34 106/55/33 23/7/7 
f 24/8/8 23/7/7 106/55/33 
f 106/55/33 113/56/40 24/8/8 
f 114/57/41 113/58/40 106/42/33 
f 106/42/33 105/41/32 114/57/41 
f 28/12/19 27/11/18 114/59/41 
f 114/59/41 105/45/32 28/12/19 
f 115/60/42 116/61/43 113/58/40 
f 113/58/40 114/57/41 115/60/42 
f 27/11/18 26/10/17 115/62/42 
f 115/62/42 114/59/41 27/11/18 
f 31/15/22 30/14/21 109/47/36 
f 109/47/36 112/63/39 31/15/22 
f 32/16/16 31/15/22 112/63/39 
f 112/63/39 117/64/44 32/16/16 
f 118/65/45 117/66/44 112/53/39 
f 112/53/39 111/52/38 118/65/45 
f 20/4/4 19/3/3 118/67/45 
f 118/67/45 111/54/38 20/4/4 
f 119/68/46 120/69/47 117/70/44 
f 117/70/44 118/71/45 119/68/46 
f 19/3/3 18/2/2 119/72/46 
f 119/72/46 118/67/45 19/3/3 
f 18/2/2 17/1/1 116/73/43 
f 116/73/43 119/72/46 18/2/2 
f 17/1/1 24/8/8 113/56/40 
f 113/56/40 116/73/43 17/1/1 
f 25/9/9 32/16/16 117/64/44 
f 117/64/44 120/74/47 25/9/9 
f 120/69/47 119/68/46 116/61/43 
f 116/61/43 115/60/42 120/69/47 
f 26/10/17 25/9/9 120/74/47 
f 120/74/47 115/62/42 26/10/17 
f 121/49/41 122/48/40 123/43/33 
f 123/43/33 124/44/32 121/49/41 
f 41/13/12 48/14/18 121/47/41 
f 121/47/41 124/46/32 41/13/12 
f 125/53/42 126/52/43 122/48/40 
f 122/48/40 121/49/41 125/53/42 
f 48/14/18 47/15/17 125/63/42 
f 125/63/42 121/47/41 48/14/18 
f 127/42/34 128/41/35 124/44/32 
f 124/44/32 123/43/33 127/42/34 
f 40/6/7 39/7/6 127/55/34 
f 127/55/34 123/51/33 40/6/7 
f 33/5/8 40/6/7 123/51/33 
f 123/51/33 122/50/40 33/5/8 
f 129/58/37 130/57/36 128/41/35 
f 128/41/35 127/42/34 129/58/37 
f 39/7/6 38/8/5 129/56/37 
f 129/56/37 127/55/34 39/7/6 
f 131/61/38 132/60/39 130/57/36 
f 130/57/36 129/58/37 131/61/38 
f 38/8/5 37/1/4 131/73/38 
f 131/73/38 129/56/37 38/8/5 
f 42/12/20 41/13/12 124/46/32 
f 124/46/32 128/45/35 42/12/20 
f 43/11/14 42/12/20 128/45/35 
f 128/45/35 130/59/36 43/11/14 
f 133/66/47 134/65/46 126/52/43 
f 126/52/43 125/53/42 133/66/47 
f 47/15/17 46/16/23 133/64/47 
f 133/64/47 125/63/42 47/15/17 
f 135/69/44 136/68/45 134/71/46 
f 134/71/46 133/70/47 135/69/44 
f 46/16/23 45/9/16 135/74/44 
f 135/74/44 133/64/47 46/16/23 
f 34/4/1 33/5/8 122/50/40 
f 122/50/40 126/54/43 34/4/1 
f 35/3/2 34/4/1 126/54/43 
f 126/54/43 134/67/46 35/3/2 
f 36/2/3 35/3/2 134/67/46 
f 134/67/46 136/72/45 36/2/3 
f 136/68/45 135/69/44 132/60/39 
f 132/60/39 131/61/38 136/68/45 
f 37/1/4 36/2/3 136/72/45 
f 136/72/45 131/73/38 37/1/4 
f 45/9/16 44/10/15 132/62/39 
f 132/62/39 135/74/44 45/9/16 
f 44/10/15 43/11/14 130/59/36 
f 130/59/36 132/62/39 44/10/15 
f 137/49/41 138/48/40 139/43/33 
f 139/43/33 140/44/32 137/49/41 
f 57/13/19 64/14/18 137/47/41 
f 137/47/41 140/46/32 57/13/19 
f 141/53/42 142/52/43 138/48/40 
f 138/48/40 137/49/41 141/53/42 
f 64/14/18 63/15/17 141/63/42 
f 141/63/42 137/47/41 64/14/18 
f 143/42/34 144/41/35 140/44/32 
f 140/44/32 139/43/33 143/42/34 
f 56/6/7 55/7/6 143/55/34 
f 143/55/34 139/51/33 56/6/7 
f 49/5/8 56/6/7 139/51/33 
f 139/51/33 138/50/40 49/5/8 
f 145/58/37 146/57/36 144/41/35 
f 144/41/35 143/42/34 145/58/37 
f 55/7/6 54/8/5 145/56/37 
f 145/56/37 143/55/34 55/7/6 
f 147/61/38 148/60/39 146/57/36 
f 146/57/36 145/58/37 147/61/38 
f 54/8/5 53/1/4 147/73/38 
f 147/73/38 145/56/37 54/8/5 
f 58/12/20 57/13/19 140/46/32 
f 140/46/32 144/45/35 58/12/20 
f 59/11/21 58/12/20 144/45/35 
f 144/45/35 146/59/36 59/11/21 
f 149/66/47 150/65/46 142/52/43 
f 142/52/43 141/53/42 149/66/47 
f 63/15/17 62/16/9 149/64/47 
f 149/64/47 141/63/42 63/15/17 
f 151/69/44 152/68/45 150/71/46 
f 150/71/46 149/70/47 151/69/44 
f 62/16/9 61/9/16 151/74/44 
f 151/74/44 149/64/47 62/16/9 
f 50/4/1 49/5/8 138/50/40 
f 138/50/40 142/54/43 50/4/1 
f 51/3/2 50/4/1 142/54/43 
f 142/54/43 150/67/46 51/3/2 
f 52/2/3 51/3/2 150/67/46 
f 150/67/46 152/72/45 52/2/3 
f 152/68/45 151/69/44 148/60/39 
f 148/60/39 147/61/38 152/68/45 
f 53/1/4 52/2/3 152/72/45 
f 152/72/45 147/73/38 53/1/4 
f 61/9/16 60/10/22 148/62/39 
f 148/62/39 151/74/44 61/9/16 
f 60/10/22 59/11/21 146/59/36 
f 146/59/36 148/62/39 60/10/22 
f 153/75/48 154/76/49 155/77/50 
f 155/77/50 156/78/51 153/75/48 
f 70/79/27 67/80/26 153/81/48 
f 153/81/48 156/82/51 70/79/27 
f 76/83/31 70/84/27 156/85/51 
f 156/85/51 155/86/50 76/83/31 
f 157/87/52 158/88/53 76/89/31 
f 76/89/31 155/90/50 157/87/52 
f 159/91/54 157/92/52 155/93/50 
f 155/93/50 154/94/49 159/91/54 
f 67/95/26 71/96/28 154/97/49 
f 154/97/49 153/98/48 67/95/26 
f 158/99/53 160/100/55 71/23/28 
f 71/23/28 76/28/31 158/99/53 
f 75/27/30 69/21/24 70/22/27 
f 70/22/27 76/28/31 75/27/30 
f 160/101/55 159/102/54 154/103/49 
f 154/103/49 71/104/28 160/101/55 
f 66/18/25 72/24/29 71/23/28 
f 71/23/28 67/19/26 66/18/25 
f 157/105/52 159/106/54 161/107/56 
f 161/107/56 162/108/57 157/105/52 
f 163/109/58 164/110/59 162/111/57 
f 162/111/57 161/112/56 163/109/58 
f 159/102/54 160/101/55 163/113/58 
f 163/113/58 161/114/56 159/102/54 
f 160/100/55 158/99/53 164/115/59 
f 164/115/59 163/116/58 160/100/55 
f 158/88/53 157/87/52 162/117/57 
f 162/117/57 164/118/59 158/88/53 
f 165/119/60 166/120/61 68/121/25 
f 68/121/25 69/122/24 165/119/60 
f 167/123/62 165/119/60 69/122/24 
f 69/122/24 75/124/30 167/123/62 
f 168/125/63 169/126/62 73/127/30 
f 73/127/30 72/128/29 168/125/63 
f 170/129/61 168/125/63 72/128/29 
f 72/128/29 66/130/25 170/129/61 
f 169/126/62 171/131/60 65/132/24 
f 65/132/24 73/127/30 169/126/62 
f 88/40/24 82/34/25 74/26/29 
f 74/26/29 73/25/30 88/40/24 
f 172/133/63 167/123/62 75/124/30 
f 75/124/30 74/134/29 172/133/63 
f 166/120/61 172/133/63 74/134/29 
f 74/134/29 68/121/25 166/120/61 
f 78/30/29 83/35/30 65/17/24 
f 65/17/24 68/20/25 78/30/29 
f 171/131/60 170/129/61 66/130/25 
f 66/130/25 65/132/24 171/131/60 
f 173/135/64 174/136/65 167/123/62 
f 167/123/62 172/133/63 173/135/64 
f 175/137/66 173/135/64 172/133/63 
f 172/133/63 166/120/61 175/137/66 
f 176/138/67 175/137/66 166/120/61 
f 166/120/61 165/119/60 176/138/67 
f 174/136/65 176/138/67 165/119/60 
f 165/119/60 167/123/62 174/136/65 
f 177/139/67 178/140/66 170/129/61 
f 170/129/61 171/131/60 177/139/67 
f 179/141/65 177/139/67 171/131/60 
f 171/131/60 169/126/62 179/141/65 
f 180/142/64 179/141/65 169/126/62 
f 169/126/62 168/125/63 180/142/64 
f 178/140/66 180/142/64 168/125/63 
f 168/125/63 170/129/61 178/140/66 
f 180/142/64 178/140/66 177/139/67 
f 177/139/67 179/141/65 180/142/64 
f 176/138/67 174/136/65 173/135/64 
f 173/135/64 175/137/66 176/138/67 
f 181/143/27 182/144/26 82/145/25 
f 82/145/25 88/146/24 181/143/27 
f 183/147/59 184/148/27 84/149/24 
f 84/149/24 83/150/30 183/147/59 
f 185/151/58 183/152/59 83/153/30 
f 83/153/30 78/154/29 185/151/58 
f 182/155/26 186/156/58 81/157/29 
f 81/157/29 82/158/25 182/155/26 
f 77/159/25 79/160/29 85/161/30 
f 85/161/30 84/162/24 77/159/25 
f 184/163/27 187/164/26 77/159/25 
f 77/159/25 84/162/24 184/163/27 
f 188/165/59 181/166/27 88/167/24 
f 88/167/24 87/168/30 188/165/59 
f 87/169/30 86/170/24 80/171/25 
f 80/171/25 81/172/29 87/169/30 
f 186/173/58 188/174/59 87/169/30 
f 87/169/30 81/172/29 186/173/58 
f 187/175/26 185/176/58 78/177/29 
f 78/177/29 77/178/25 187/175/26 
f 189/179/59 190/180/27 86/181/24 
f 86/181/24 85/182/30 189/179/59 
f 190/183/27 191/184/26 80/171/25 
f 80/171/25 86/170/24 190/183/27 
f 191/185/26 192/186/58 79/187/29 
f 79/187/29 80/188/25 191/185/26 
f 192/189/58 189/190/59 85/161/30 
f 85/161/30 79/160/29 192/189/58 
f 185/191/58 187/192/26 184/193/27 
f 184/193/27 183/194/59 185/191/58 
f 181/195/27 188/196/59 186/197/58 
f 186/197/58 182/198/26 181/195/27 
f 192/199/58 191/200/26 190/201/27 
f 190/201/27 189/202/59 192/199/58 
# 364 faces

