# 3ds Max Wavefront OBJ Exporter v0.97b - (c)2007 guruware
# File Created: 30.04.2019 02:33:58

mtllib side1.mtl

#
# object kast1
#

v  -109.3149 16.7604 -180.3103
v  -109.3149 110.6693 -180.3103
v  -109.3149 110.6693 -110.5506
v  -109.3149 80.2000 -110.5506
v  -109.3149 48.4802 -110.5506
v  -109.3149 16.7604 -110.5506
v  -215.2959 80.2000 -110.5506
v  -215.2959 110.6693 -110.5506
v  -215.2959 110.6693 -180.3103
v  -215.2959 48.4802 -110.5506
v  -215.2959 16.7604 -180.3103
v  -215.2959 16.7604 -110.5506
v  -212.2889 108.1134 -110.5506
v  -214.5974 111.0356 -110.5506
v  -212.2889 84.0063 -110.5506
v  -110.0134 111.0356 -110.5506
v  -112.3219 108.1134 -110.5506
v  -112.3219 84.0063 -110.5506
v  -162.3054 68.9767 -103.9547
v  -165.7635 67.5444 -103.9547
v  -167.1958 64.0863 -103.9547
v  -165.7635 60.6283 -103.9547
v  -162.3054 59.1959 -103.9547
v  -158.8474 60.6283 -103.9547
v  -157.4150 64.0863 -103.9547
v  -158.8474 67.5444 -103.9547
v  -127.8210 -0.0966 -167.2021
v  -127.8210 -0.0966 -172.3747
v  -124.4187 -0.0966 -175.7770
v  -119.2461 -0.0966 -175.7770
v  -115.8438 -0.0966 -172.3747
v  -115.8438 -0.0966 -167.2021
v  -119.2461 -0.0966 -163.7998
v  -124.4187 -0.0966 -163.7998
v  -197.6461 -0.0966 -124.7909
v  -197.6461 -0.0966 -119.6183
v  -201.0484 -0.0966 -116.2160
v  -206.2210 -0.0966 -116.2160
v  -209.6233 -0.0966 -119.6183
v  -209.6233 -0.0966 -124.7909
v  -206.2210 -0.0966 -128.1932
v  -201.0484 -0.0966 -128.1932
v  -115.8438 -0.0966 -119.6183
v  -119.2461 -0.0966 -116.2160
v  -124.4187 -0.0966 -116.2160
v  -127.8210 -0.0966 -119.6183
v  -127.8210 -0.0966 -124.7909
v  -124.4187 -0.0966 -128.1932
v  -119.2461 -0.0966 -128.1932
v  -115.8438 -0.0966 -124.7909
v  -209.6233 -0.0966 -172.3747
v  -206.2210 -0.0966 -175.7770
v  -201.0484 -0.0966 -175.7770
v  -197.6461 -0.0966 -172.3747
v  -197.6461 -0.0966 -167.2021
v  -201.0484 -0.0966 -163.7998
v  -206.2210 -0.0966 -163.7998
v  -209.6233 -0.0966 -167.2021
v  -162.3054 36.5296 -103.9547
v  -165.7635 35.0972 -103.9547
v  -167.1958 31.6392 -103.9547
v  -165.7635 28.1811 -103.9547
v  -162.3054 26.7487 -103.9547
v  -158.8474 28.1811 -103.9547
v  -157.4150 31.6392 -103.9547
v  -158.8474 35.0972 -103.9547
v  -212.2889 20.5668 -110.2901
v  -212.2889 44.6738 -110.2901
v  -212.2889 44.6738 -110.5506
v  -212.2889 20.5668 -110.5506
v  -112.3219 20.5668 -110.2901
v  -112.3219 20.5668 -110.5506
v  -212.2889 52.2865 -110.2901
v  -212.2889 76.3936 -110.2901
v  -212.2889 76.3936 -110.5506
v  -212.2889 52.2865 -110.5506
v  -112.3219 52.2865 -110.2901
v  -112.3219 52.2865 -110.5506
v  -212.2889 84.0063 -110.2901
v  -212.2889 108.1134 -110.2901
v  -112.3219 84.0063 -110.2901
v  -112.3219 108.1134 -110.2901
v  -112.3219 44.6738 -110.5506
v  -112.3219 76.3936 -110.5506
v  -112.3219 44.6738 -110.2901
v  -112.3219 76.3936 -110.2901
v  -112.9393 43.8923 -109.5086
v  -112.9393 21.3483 -109.5086
v  -211.6715 43.8923 -109.5086
v  -211.6715 21.3483 -109.5086
v  -112.9393 75.6121 -109.5086
v  -112.9393 53.0680 -109.5086
v  -211.6715 75.6121 -109.5086
v  -211.6715 53.0680 -109.5086
v  -212.2889 84.0063 -169.1856
v  -212.2889 108.1134 -169.1856
v  -112.3219 84.0063 -169.1856
v  -112.3219 108.1134 -169.1856
v  -214.3081 111.9197 -111.8010
v  -214.3081 111.9197 -179.0599
v  -110.3027 111.9197 -111.8010
v  -110.3027 111.9197 -179.0599
v  -156.5815 64.0863 -104.7247
v  -158.2580 68.1337 -104.7247
v  -156.5815 64.0863 -112.5951
v  -158.2580 68.1337 -112.5951
v  -158.2580 60.0389 -112.5951
v  -158.2580 60.0389 -104.7247
v  -162.3054 58.3624 -112.5951
v  -162.3054 58.3624 -104.7247
v  -166.3528 60.0389 -112.5951
v  -166.3528 60.0389 -104.7247
v  -168.0293 64.0863 -112.5951
v  -168.0293 64.0863 -104.7247
v  -166.3528 68.1337 -112.5951
v  -166.3528 68.1337 -104.7247
v  -162.3054 69.8102 -112.5951
v  -162.3054 69.8102 -104.7247
v  -115.8438 24.4373 -167.2021
v  -119.2461 24.4373 -163.7998
v  -124.4187 24.4373 -163.7998
v  -127.8210 24.4373 -167.2021
v  -115.8438 24.4373 -172.3747
v  -119.2461 24.4373 -175.7770
v  -124.4187 24.4373 -175.7770
v  -127.8210 24.4373 -172.3747
v  -209.6233 24.4373 -124.7909
v  -206.2210 24.4373 -128.1932
v  -201.0484 24.4373 -128.1932
v  -197.6461 24.4373 -124.7909
v  -209.6233 24.4373 -119.6183
v  -206.2210 24.4373 -116.2160
v  -201.0484 24.4373 -116.2160
v  -197.6461 24.4373 -119.6183
v  -119.2461 24.4373 -128.1932
v  -115.8438 24.4373 -124.7909
v  -115.8438 24.4373 -119.6183
v  -124.4187 24.4373 -128.1932
v  -127.8210 24.4373 -119.6183
v  -127.8210 24.4373 -124.7909
v  -119.2461 24.4373 -116.2160
v  -124.4187 24.4373 -116.2160
v  -206.2210 24.4373 -163.7998
v  -209.6233 24.4373 -167.2021
v  -209.6233 24.4373 -172.3747
v  -201.0484 24.4373 -163.7998
v  -197.6461 24.4373 -172.3747
v  -197.6461 24.4373 -167.2021
v  -206.2210 24.4373 -175.7770
v  -201.0484 24.4373 -175.7770
v  -156.5815 31.6392 -112.5951
v  -158.2580 35.6865 -112.5951
v  -158.2580 35.6865 -104.7247
v  -156.5815 31.6392 -104.7247
v  -158.2580 27.5918 -112.5951
v  -158.2580 27.5918 -104.7247
v  -162.3054 25.9153 -112.5951
v  -162.3054 25.9153 -104.7247
v  -166.3528 27.5918 -112.5951
v  -166.3528 27.5918 -104.7247
v  -168.0293 31.6392 -112.5951
v  -168.0293 31.6392 -104.7247
v  -166.3528 35.6865 -112.5951
v  -166.3528 35.6865 -104.7247
v  -162.3054 37.3630 -112.5951
v  -162.3054 37.3630 -104.7247
# 166 vertices

vn 0.5774 -0.5774 -0.5774
vn 0.6501 0.3738 -0.6615
vn 0.6967 0.3126 0.6456
vn 0.7071 0.0000 0.7071
vn 0.5774 -0.5774 0.5774
vn -0.7071 0.0000 0.7071
vn -0.6967 0.3126 0.6456
vn -0.6501 0.3738 -0.6615
vn -0.5774 -0.5774 -0.5774
vn -0.5774 -0.5774 0.5774
vn 0.0000 0.0000 1.0000
vn -0.1589 0.5194 0.8396
vn 0.1589 0.5194 0.8396
vn 0.0000 0.4377 0.8991
vn -0.3095 0.3095 0.8991
vn -0.4377 0.0000 0.8991
vn -0.3095 -0.3095 0.8991
vn -0.0000 -0.4377 0.8991
vn 0.3095 -0.3095 0.8991
vn 0.4377 0.0000 0.8991
vn 0.3095 0.3095 0.8991
vn -0.7173 -0.6303 0.2971
vn -0.7173 -0.6303 -0.2971
vn -0.2971 -0.6303 -0.7173
vn 0.2971 -0.6303 -0.7173
vn 0.7173 -0.6303 -0.2971
vn 0.7173 -0.6303 0.2971
vn 0.2971 -0.6303 0.7173
vn -0.2971 -0.6303 0.7173
vn -0.4377 -0.0000 0.8991
vn -0.7071 -0.7071 -0.0000
vn -1.0000 0.0000 -0.0000
vn 0.0000 -1.0000 -0.0000
vn -0.7071 0.7071 -0.0000
vn 0.7071 -0.7071 -0.0000
vn 0.7071 0.7071 -0.0000
vn 0.0000 0.3162 0.9487
vn 0.3162 0.0000 0.9487
vn 0.3015 0.3015 0.9045
vn 0.6501 0.6615 0.3738
vn 0.8337 -0.2743 0.4794
vn -0.2575 0.8412 0.4754
vn 0.3520 0.2951 0.8883
vn 0.3520 -0.2951 0.8883
vn -0.3520 0.2951 0.8883
vn -0.3520 -0.2951 0.8883
vn -0.4255 -0.4494 0.7855
vn 0.5774 0.5774 0.5774
vn -0.5774 0.5774 0.5774
vn -0.3671 0.9019 0.2277
vn -0.3520 0.8883 -0.2951
vn 0.3671 0.9019 0.2277
vn 0.3520 0.8883 -0.2951
vn 0.9295 0.0000 0.3689
vn 0.6572 0.6572 0.3689
vn 1.0000 -0.0000 -0.0000
vn 0.6572 -0.6572 0.3689
vn -0.0000 -0.9295 0.3689
vn -0.6572 -0.6572 0.3689
vn -0.9295 -0.0000 0.3689
vn -0.6572 0.6572 0.3689
vn 0.0000 1.0000 -0.0000
vn 0.0000 0.9295 0.3689
vn 0.9239 0.0000 0.3827
vn 0.3827 0.0000 0.9239
vn -0.3827 0.0000 0.9239
vn -0.9239 0.0000 0.3827
vn 0.9239 0.0000 -0.3827
vn 0.3827 0.0000 -0.9239
vn -0.3827 0.0000 -0.9239
vn -0.9239 0.0000 -0.3827
vn 1.0000 0.0000 -0.0000
vn -0.9295 0.0000 0.3689
# 73 vertex normals

vt 0.5714 0.7689 0.0000
vt 0.5720 0.4694 0.0000
vt 0.7947 0.4698 0.0000
vt 0.7946 0.5670 0.0000
vt 0.7944 0.6683 0.0000
vt 0.7941 0.7696 0.0000
vt 0.0114 0.5648 0.0000
vt 0.0118 0.4675 0.0000
vt 0.2346 0.4684 0.0000
vt 0.0111 0.6660 0.0000
vt 0.2335 0.7679 0.0000
vt 0.0108 0.7672 0.0000
vt 0.5906 0.3747 0.0000
vt 0.5816 0.3860 0.0000
vt 0.5789 0.3846 0.0000
vt 0.5789 0.2665 0.0000
vt 0.5906 0.2813 0.0000
vt 0.9869 0.3860 0.0000
vt 0.9780 0.3747 0.0000
vt 0.9780 0.2813 0.0000
vt 0.9896 0.2665 0.0000
vt 0.9896 0.3846 0.0000
vt 0.1669 0.4552 0.0000
vt 0.1490 0.4477 0.0000
vt 0.1415 0.4298 0.0000
vt 0.1490 0.4118 0.0000
vt 0.1669 0.4044 0.0000
vt 0.1849 0.4118 0.0000
vt 0.1923 0.4298 0.0000
vt 0.1849 0.4477 0.0000
vt 0.2018 0.9375 0.0000
vt 0.2018 0.9616 0.0000
vt 0.1860 0.9775 0.0000
vt 0.1619 0.9775 0.0000
vt 0.1460 0.9616 0.0000
vt 0.1460 0.9375 0.0000
vt 0.1619 0.9217 0.0000
vt 0.1860 0.9217 0.0000
vt 0.0000 1.0000 0.0000
vt 0.5707 0.9914 0.0000
vt 0.2328 0.9904 0.0000
vt 0.5906 0.0355 0.0000
vt 0.5906 0.1289 0.0000
vt 0.5789 0.1436 0.0000
vt 0.5789 0.0208 0.0000
vt 0.9780 0.0355 0.0000
vt 0.9896 0.0208 0.0000
vt 0.9780 0.1289 0.0000
vt 0.9896 0.1436 0.0000
vt 0.5906 0.1584 0.0000
vt 0.5906 0.2518 0.0000
vt 0.9780 0.2518 0.0000
vt 0.9780 0.1584 0.0000
vt 0.9780 0.2517 0.0000
vt 0.5906 0.2517 0.0000
vt 0.9756 0.1258 0.0000
vt 0.9756 0.0384 0.0000
vt 0.5930 0.1258 0.0000
vt 0.5930 0.0384 0.0000
vt 0.9756 0.2486 0.0000
vt 0.9756 0.1613 0.0000
vt 0.5930 0.2486 0.0000
vt 0.5930 0.1613 0.0000
vt 0.8882 0.7984 0.0000
vt 0.8014 0.7984 0.0000
vt 0.8014 0.5864 0.0000
vt 0.8882 0.5864 0.0000
vt 0.8866 0.9883 0.0000
vt 0.5794 0.9883 0.0000
vt 0.5794 0.8073 0.0000
vt 0.8866 0.8073 0.0000
vt 0.8996 0.5863 0.0000
vt 0.9864 0.5863 0.0000
vt 0.9864 0.7983 0.0000
vt 0.8996 0.7983 0.0000
vt 0.5590 0.2251 0.0000
vt 0.2518 0.2251 0.0000
vt 0.2518 0.0441 0.0000
vt 0.5590 0.0441 0.0000
vt 0.5827 0.3895 0.0000
vt 0.2384 0.2501 0.0000
vt 0.2385 0.4635 0.0000
vt 0.2333 0.2461 0.0000
vt 0.9858 0.3895 0.0000
vt 0.5681 0.4645 0.0000
vt 0.5695 0.2511 0.0000
vt 0.5746 0.2472 0.0000
vt 0.1211 0.4579 0.0000
vt 0.0157 0.4579 0.0000
vt 0.0157 0.0205 0.0000
vt 0.1211 0.0205 0.0000
vt 0.1957 0.1646 0.0000
vt 0.2044 0.1430 0.0000
vt 0.2095 0.1426 0.0000
vt 0.1994 0.1677 0.0000
vt 0.1759 0.2527 0.0000
vt 0.1759 0.2754 0.0000
vt 0.1351 0.2754 0.0000
vt 0.1351 0.2527 0.0000
vt 0.1759 0.2299 0.0000
vt 0.1351 0.2299 0.0000
vt 0.1759 0.2072 0.0000
vt 0.1351 0.2072 0.0000
vt 0.1759 0.3664 0.0000
vt 0.1759 0.3892 0.0000
vt 0.1351 0.3892 0.0000
vt 0.1351 0.3664 0.0000
vt 0.1759 0.3437 0.0000
vt 0.1351 0.3437 0.0000
vt 0.1759 0.3209 0.0000
vt 0.1351 0.3209 0.0000
vt 0.1759 0.2982 0.0000
vt 0.1351 0.2982 0.0000
vt 0.1932 0.7890 0.0000
vt 0.2156 0.7890 0.0000
vt 0.2156 0.9032 0.0000
vt 0.1932 0.9032 0.0000
vt 0.0537 0.9032 0.0000
vt 0.0296 0.9032 0.0000
vt 0.0296 0.7890 0.0000
vt 0.0537 0.7890 0.0000
vt 0.0761 0.7890 0.0000
vt 0.0761 0.9032 0.0000
vt 0.1691 0.7890 0.0000
vt 0.1691 0.9032 0.0000
vt 0.1467 0.9032 0.0000
vt 0.1467 0.7890 0.0000
vt 0.1226 0.9032 0.0000
vt 0.1226 0.7890 0.0000
vt 0.1002 0.9032 0.0000
vt 0.1002 0.7890 0.0000
vt 0.1744 0.1734 0.0000
vt 0.1747 0.1779 0.0000
vt 0.1533 0.1642 0.0000
vt 0.1502 0.1673 0.0000
vt 0.1447 0.1427 0.0000
vt 0.1402 0.1423 0.0000
vt 0.1535 0.1214 0.0000
vt 0.1504 0.1176 0.0000
vt 0.1744 0.1127 0.0000
vt 0.1747 0.1075 0.0000
vt 0.1955 0.1216 0.0000
vt 0.1992 0.1177 0.0000
vt 0.2015 0.0798 0.0000
vt 0.2099 0.0595 0.0000
vt 0.2148 0.0606 0.0000
vt 0.2051 0.0842 0.0000
vt 0.1809 0.0884 0.0000
vt 0.1812 0.0942 0.0000
vt 0.1605 0.0803 0.0000
vt 0.1575 0.0848 0.0000
vt 0.1522 0.0604 0.0000
vt 0.1479 0.0617 0.0000
vt 0.1607 0.0404 0.0000
vt 0.1577 0.0384 0.0000
vt 0.1810 0.0318 0.0000
vt 0.1812 0.0285 0.0000
vt 0.2013 0.0397 0.0000
vt 0.2049 0.0376 0.0000
# 159 texture coords

g kast1
usemtl Material__28
s 1
f 1/1/1 2/2/2 3/3/3 
f 1/1/1 3/3/3 4/4/4 
f 1/1/1 4/4/4 5/5/4 
f 1/1/1 5/5/4 6/6/5 
f 7/7/6 8/8/7 9/9/8 
f 10/10/6 7/7/6 9/9/8 
f 10/10/6 9/9/8 11/11/9 
f 10/10/6 11/11/9 12/12/10 
f 13/13/11 14/14/12 8/15/7 
f 13/13/11 8/15/7 7/16/6 
f 15/17/11 13/13/11 7/16/6 
f 16/18/13 17/19/11 18/20/11 
f 16/18/13 18/20/11 4/21/4 
f 3/22/3 16/18/13 4/21/4 
f 19/23/14 20/24/15 21/25/16 
f 21/25/16 22/26/17 23/27/18 
f 23/27/18 24/28/19 25/29/20 
f 21/25/16 23/27/18 25/29/20 
f 19/23/14 21/25/16 25/29/20 
f 26/30/21 19/23/14 25/29/20 
f 27/31/22 28/32/23 29/33/24 
f 29/33/24 30/34/25 31/35/26 
f 31/35/26 32/36/27 33/37/28 
f 29/33/24 31/35/26 33/37/28 
f 27/31/22 29/33/24 33/37/28 
f 34/38/29 27/31/22 33/37/28 
f 35/31/26 36/32/27 37/33/28 
f 37/33/28 38/34/29 39/35/22 
f 39/35/22 40/36/23 41/37/24 
f 37/33/28 39/35/22 41/37/24 
f 35/31/26 37/33/28 41/37/24 
f 42/38/25 35/31/26 41/37/24 
f 43/35/27 44/34/28 45/33/29 
f 45/33/29 46/32/22 47/31/23 
f 47/31/23 48/38/24 49/37/25 
f 45/33/29 47/31/23 49/37/25 
f 43/35/27 45/33/29 49/37/25 
f 50/36/26 43/35/27 49/37/25 
f 51/35/23 52/34/24 53/33/25 
f 53/33/25 54/32/26 55/31/27 
f 55/31/27 56/38/28 57/37/29 
f 53/33/25 55/31/27 57/37/29 
f 51/35/23 53/33/25 57/37/29 
f 58/36/22 51/35/23 57/37/29 
f 59/23/14 60/24/15 61/25/30 
f 61/25/30 62/26/17 63/27/18 
f 63/27/18 64/28/19 65/29/20 
f 61/25/30 63/27/18 65/29/20 
f 59/23/14 61/25/30 65/29/20 
f 66/30/21 59/23/14 65/29/20 
f 67/39/31 68/39/32 69/39/32 
f 69/39/32 70/39/31 67/39/31 
f 71/39/33 67/39/31 70/39/31 
f 70/39/31 72/39/33 71/39/33 
f 73/39/31 74/39/32 75/39/32 
f 75/39/32 76/39/31 73/39/31 
f 77/39/33 73/39/31 76/39/31 
f 76/39/31 78/39/33 77/39/33 
f 79/39/31 80/39/34 13/39/34 
f 13/39/34 15/39/31 79/39/31 
f 81/39/35 79/39/31 15/39/31 
f 15/39/31 18/39/35 81/39/35 
f 82/39/36 81/39/35 18/39/35 
f 18/39/35 17/39/36 82/39/36 
f 80/39/34 82/39/36 17/39/36 
f 17/39/36 13/39/34 80/39/34 
f 11/11/9 1/1/1 6/40/5 
f 6/40/5 12/41/10 11/11/9 
f 70/42/11 69/43/37 10/44/6 
f 10/44/6 12/45/10 70/42/11 
f 72/46/38 70/42/11 12/45/10 
f 12/45/10 6/47/5 72/46/38 
f 69/43/37 83/48/39 5/49/4 
f 5/49/4 10/44/6 69/43/37 
f 76/50/11 75/51/37 7/16/6 
f 7/16/6 10/44/6 76/50/11 
f 75/51/37 84/52/39 4/21/4 
f 4/21/4 7/16/6 75/51/37 
f 84/52/39 78/53/38 5/49/4 
f 5/49/4 4/21/4 84/52/39 
f 18/20/11 15/17/11 7/16/6 
f 7/16/6 4/21/4 18/20/11 
f 83/48/39 72/46/38 6/47/5 
f 6/47/5 5/49/4 83/48/39 
f 78/53/38 76/50/11 10/44/6 
f 10/44/6 5/49/4 78/53/38 
f 85/48/40 71/46/41 72/46/38 
f 72/46/38 83/48/39 85/48/40 
f 68/43/42 85/48/40 83/48/39 
f 83/48/39 69/43/37 68/43/42 
f 86/54/40 77/53/41 78/53/38 
f 78/53/38 84/52/39 86/54/40 
f 74/55/42 86/54/40 84/52/39 
f 84/52/39 75/51/37 74/55/42 
f 16/18/13 14/14/12 13/13/11 
f 13/13/11 17/19/11 16/18/13 
f 87/56/43 88/57/44 71/46/41 
f 71/46/41 85/48/40 87/56/43 
f 89/58/45 87/56/43 85/48/40 
f 85/48/40 68/43/42 89/58/45 
f 90/59/46 89/58/45 68/43/42 
f 68/43/42 67/42/47 90/59/46 
f 88/57/44 90/59/46 67/42/47 
f 67/42/47 71/46/41 88/57/44 
f 91/60/43 92/61/44 77/53/41 
f 77/53/41 86/54/40 91/60/43 
f 93/62/45 91/60/43 86/54/40 
f 86/54/40 74/55/42 93/62/45 
f 94/63/46 93/62/45 74/55/42 
f 74/55/42 73/50/47 94/63/46 
f 92/61/44 94/63/46 73/50/47 
f 73/50/47 77/53/41 92/61/44 
f 95/64/48 96/65/5 80/66/35 
f 80/66/35 79/67/36 95/64/48 
f 97/68/49 95/69/48 79/70/36 
f 79/70/36 81/71/34 97/68/49 
f 98/72/10 97/73/49 81/74/34 
f 81/74/34 82/75/31 98/72/10 
f 96/76/5 98/77/10 82/78/31 
f 82/78/31 80/79/35 96/76/5 
f 90/59/46 88/57/44 87/56/43 
f 87/56/43 89/58/45 90/59/46 
f 94/63/46 92/61/44 91/60/43 
f 91/60/43 93/62/45 94/63/46 
f 14/14/12 99/80/50 8/15/7 
f 99/81/50 100/82/51 9/9/8 
f 9/9/8 8/83/7 99/81/50 
f 3/22/3 101/84/52 16/18/13 
f 101/84/52 99/80/50 14/14/12 
f 14/14/12 16/18/13 101/84/52 
f 2/2/2 1/1/1 11/11/9 
f 11/11/9 9/9/8 2/2/2 
f 100/82/51 102/85/53 2/2/2 
f 2/2/2 9/9/8 100/82/51 
f 102/85/53 101/86/52 3/87/3 
f 3/87/3 2/2/2 102/85/53 
f 102/85/53 100/82/51 99/81/50 
f 99/81/50 101/86/52 102/85/53 
f 97/88/49 98/89/10 96/90/5 
f 96/90/5 95/91/48 97/88/49 
f 26/92/21 25/93/20 103/94/54 
f 103/94/54 104/95/55 26/92/21 
f 105/96/56 106/97/36 104/98/55 
f 104/98/55 103/99/54 105/96/56 
f 107/100/35 105/96/56 103/99/54 
f 103/99/54 108/101/57 107/100/35 
f 109/102/33 107/100/35 108/101/57 
f 108/101/57 110/103/58 109/102/33 
f 111/104/31 109/105/33 110/106/58 
f 110/106/58 112/107/59 111/104/31 
f 113/108/32 111/104/31 112/107/59 
f 112/107/59 114/109/60 113/108/32 
f 115/110/34 113/108/32 114/109/60 
f 114/109/60 116/111/61 115/110/34 
f 117/112/62 115/110/34 116/111/61 
f 116/111/61 118/113/63 117/112/62 
f 106/97/36 117/112/62 118/113/63 
f 118/113/63 104/98/55 106/97/36 
f 119/114/64 120/115/65 33/116/28 
f 33/116/28 32/117/27 119/114/64 
f 34/118/29 33/119/28 120/120/65 
f 120/120/65 121/121/66 34/118/29 
f 121/121/66 122/122/67 27/123/22 
f 27/123/22 34/118/29 121/121/66 
f 123/124/68 119/114/64 32/117/27 
f 32/117/27 31/125/26 123/124/68 
f 31/125/26 30/126/25 124/127/69 
f 124/127/69 123/124/68 31/125/26 
f 30/126/25 29/128/24 125/129/70 
f 125/129/70 124/127/69 30/126/25 
f 28/130/23 27/123/22 122/122/67 
f 122/122/67 126/131/71 28/130/23 
f 29/128/24 28/130/23 126/131/71 
f 126/131/71 125/129/70 29/128/24 
f 127/114/71 128/115/70 41/116/24 
f 41/116/24 40/117/23 127/114/71 
f 42/118/25 41/119/24 128/120/70 
f 128/120/70 129/121/69 42/118/25 
f 129/121/69 130/122/68 35/123/26 
f 35/123/26 42/118/25 129/121/69 
f 131/124/67 127/114/71 40/117/23 
f 40/117/23 39/125/22 131/124/67 
f 39/125/22 38/126/29 132/127/66 
f 132/127/66 131/124/67 39/125/22 
f 38/126/29 37/128/28 133/129/65 
f 133/129/65 132/127/66 38/126/29 
f 36/130/27 35/123/26 130/122/68 
f 130/122/68 134/131/64 36/130/27 
f 37/128/28 36/130/27 134/131/64 
f 134/131/64 133/129/65 37/128/28 
f 135/115/69 136/114/68 50/117/26 
f 50/117/26 49/116/25 135/115/69 
f 136/114/68 137/124/64 43/125/27 
f 43/125/27 50/117/26 136/114/68 
f 49/119/25 48/118/24 138/121/70 
f 138/121/70 135/120/69 49/119/25 
f 47/123/23 46/130/22 139/131/67 
f 139/131/67 140/122/71 47/123/23 
f 140/122/71 138/121/70 48/118/24 
f 48/118/24 47/123/23 140/122/71 
f 44/126/28 43/125/27 137/124/64 
f 137/124/64 141/127/65 44/126/28 
f 46/130/22 45/128/29 142/129/66 
f 142/129/66 139/131/67 46/130/22 
f 45/128/29 44/126/28 141/127/65 
f 141/127/65 142/129/66 45/128/29 
f 143/115/66 144/114/67 58/117/22 
f 58/117/22 57/116/29 143/115/66 
f 144/114/67 145/124/71 51/125/23 
f 51/125/23 58/117/22 144/114/67 
f 57/119/29 56/118/28 146/121/65 
f 146/121/65 143/120/66 57/119/29 
f 55/123/27 54/130/26 147/131/68 
f 147/131/68 148/122/64 55/123/27 
f 148/122/64 146/121/65 56/118/28 
f 56/118/28 55/123/27 148/122/64 
f 52/126/24 51/125/23 145/124/71 
f 145/124/71 149/127/70 52/126/24 
f 54/130/26 53/128/25 150/129/69 
f 150/129/69 147/131/68 54/130/26 
f 53/128/25 52/126/24 149/127/70 
f 149/127/70 150/129/69 53/128/25 
f 19/132/14 26/92/21 104/95/55 
f 104/95/55 118/133/63 19/132/14 
f 20/134/15 19/132/14 118/133/63 
f 118/133/63 116/135/61 20/134/15 
f 21/136/16 20/134/15 116/135/61 
f 116/135/61 114/137/60 21/136/16 
f 151/96/72 152/97/36 153/98/55 
f 153/98/55 154/99/54 151/96/72 
f 155/100/35 151/96/72 154/99/54 
f 154/99/54 156/101/57 155/100/35 
f 157/102/33 155/100/35 156/101/57 
f 156/101/57 158/103/58 157/102/33 
f 159/104/31 157/105/33 158/106/58 
f 158/106/58 160/107/59 159/104/31 
f 161/108/32 159/104/31 160/107/59 
f 160/107/59 162/109/73 161/108/32 
f 163/110/34 161/108/32 162/109/73 
f 162/109/73 164/111/61 163/110/34 
f 165/112/62 163/110/34 164/111/61 
f 164/111/61 166/113/63 165/112/62 
f 152/97/36 165/112/62 166/113/63 
f 166/113/63 153/98/55 152/97/36 
f 22/138/17 21/136/16 114/137/60 
f 114/137/60 112/139/59 22/138/17 
f 23/140/18 22/138/17 112/139/59 
f 112/139/59 110/141/58 23/140/18 
f 24/142/19 23/140/18 110/141/58 
f 110/141/58 108/143/57 24/142/19 
f 25/93/20 24/142/19 108/143/57 
f 108/143/57 103/94/54 25/93/20 
f 66/144/21 65/145/20 154/146/54 
f 154/146/54 153/147/55 66/144/21 
f 59/148/14 66/144/21 153/147/55 
f 153/147/55 166/149/63 59/148/14 
f 60/150/15 59/148/14 166/149/63 
f 166/149/63 164/151/61 60/150/15 
f 61/152/30 60/150/15 164/151/61 
f 164/151/61 162/153/73 61/152/30 
f 62/154/17 61/152/30 162/153/73 
f 162/153/73 160/155/59 62/154/17 
f 63/156/18 62/154/17 160/155/59 
f 160/155/59 158/157/58 63/156/18 
f 64/158/19 63/156/18 158/157/58 
f 158/157/58 156/159/57 64/158/19 
f 65/145/20 64/158/19 156/159/57 
f 156/159/57 154/146/54 65/145/20 
# 268 faces

